<svg id="f133a5ca-fb60-4262-a720-14c53d557370" data-name="Layer 2" xmlns="http://www.w3.org/2000/svg" viewBox="0 0 287.16 197.57"><defs><style>.e7925c2e-5587-484a-9988-628fd3a74f08{fill:#9b7053;}.bcd447fb-009a-4438-a4ca-01a37413eaa3,.e7925c2e-5587-484a-9988-628fd3a74f08,.ef7182ec-fc2c-459f-85aa-ce682bd43803,.fabc5203-c54a-4811-b1d2-d6dda51acc7a{stroke:#000;}.a0f1ca2c-5e22-4615-b529-a0a5263bb6b2,.bcd447fb-009a-4438-a4ca-01a37413eaa3,.e7925c2e-5587-484a-9988-628fd3a74f08,.e8c0d404-fd20-48c7-b431-670e1d4295e6,.ef7182ec-fc2c-459f-85aa-ce682bd43803,.fabc5203-c54a-4811-b1d2-d6dda51acc7a{stroke-miterlimit:10;stroke-width:2px;}.fabc5203-c54a-4811-b1d2-d6dda51acc7a{fill:#f47b2a;}.bcd447fb-009a-4438-a4ca-01a37413eaa3{fill:#fff;}.a0f1ca2c-5e22-4615-b529-a0a5263bb6b2,.e8c0d404-fd20-48c7-b431-670e1d4295e6{stroke:#fff;}.e8c0d404-fd20-48c7-b431-670e1d4295e6{fill:#050505;}</style></defs><path class="e7925c2e-5587-484a-9988-628fd3a74f08" d="M326.93,204.62c1,13.45,9.63,29.13,21.51,45.77a44.37,44.37,0,0,0,22.72,16.78c8.58-4.18,12.33-8.46,13.35-12.79L518.6,229.15c9.3-.48,16.62-2.9,20.87-8.36,3.06-5.59,5.3-12.61,6.12-22.1,4.23-17.16,6.36-33.12,2.31-45.57L490.4,79.58c-19.29-4-42.51-2.38-68.61,3.23a142.57,142.57,0,0,0-75.25,24.86Z" transform="translate(-282.54 -70.67)"/><path class="fabc5203-c54a-4811-b1d2-d6dda51acc7a" d="M367,119.44c-1.32,5-7.23,11.16-13.67,17.46-15.4,69.12-5.92,80.4,4.43,89.64,15.05,21.55,49.49,28,89.73,29.87,51.6-13,85.32-28.73,86.53-49.29,2.76-37.8-4.59-74-36.82-97.55-10.37-2.47-16.61-5.46-20.5-8.73C441.76,96.72,405,104.07,367,119.44Z" transform="translate(-282.54 -70.67)"/><path class="bcd447fb-009a-4438-a4ca-01a37413eaa3" d="M405.84,245.06a22.16,22.16,0,0,0,6,13.68,49.4,49.4,0,0,0,23.34,8.43c12.33-.5,24.26-1.21,30.94-4.63A30.6,30.6,0,0,0,480,254.38c2-4.87,3-9.72,2.24-14.52" transform="translate(-282.54 -70.67)"/><path class="bcd447fb-009a-4438-a4ca-01a37413eaa3" d="M420.94,202.94a21.55,21.55,0,0,0-8,11.77c-2.7,3.56-7.94,4.31-13.29,4.94-2.11,7-.95,14.24,3,21.63,3.83,5,8.14,9.53,14.42,12.53,7.23,1.88,12.95,2.28,16.7.76,6.31-2.09,10.53-4.15,12.43-6.17,3.21,1.74,8.49,2.33,14.94,2.26,8.22-.67,14.26-3,18.19-7.1A31.42,31.42,0,0,0,487,227.24c2.41-6,1.81-11.6-2.66-16.7A21.12,21.12,0,0,1,470.88,206c-2-4.49-6.38-8.8-12-9.09-4.38-1-8.61.29-16.32,8C432.62,197.15,426.05,200.29,420.94,202.94Z" transform="translate(-282.54 -70.67)"/><path class="a0f1ca2c-5e22-4615-b529-a0a5263bb6b2" d="M463.83,194.21c-.05-4.25.28-8.24,2.28-11a18.41,18.41,0,0,1,9.87-2.66c2.19,4.42,3,8.52,0,11.75Q471.35,196.53,463.83,194.21Z" transform="translate(-282.54 -70.67)"/><path class="a0f1ca2c-5e22-4615-b529-a0a5263bb6b2" d="M442.58,220.79c-6.58,4-10.35,9.89-12.91,16.7-1.08,6.06,2.9,9.31,9.87,10.25,5.58,1.19,10.21.88,13.28-1.9,5.69-1.19,8.76-5.18,8.36-12.91C457.37,225.89,451.56,221.35,442.58,220.79Z" transform="translate(-282.54 -70.67)"/><path class="e8c0d404-fd20-48c7-b431-670e1d4295e6" d="M399.28,195c-1.24,4.26.48,7.05,3.82,9a13.24,13.24,0,0,0,11.39-1.89c-1.4-4.42-3.6-7.38-6.46-9.11C404.46,192.45,401.29,192.63,399.28,195Z" transform="translate(-282.54 -70.67)"/><path class="bcd447fb-009a-4438-a4ca-01a37413eaa3" d="M419.75,190a24.79,24.79,0,0,0-11.72-8,27.71,27.71,0,0,0-18.14,0c3.92-5.26,8.38-9.78,14.93-11.35,5.95-1,9.83.44,12.7,3C423,178.82,422.6,184.34,419.75,190Z" transform="translate(-282.54 -70.67)"/><path class="bcd447fb-009a-4438-a4ca-01a37413eaa3" d="M452.44,182.45c-4.37-3.27-6.35-8.12-3.79-15.95,4.58-4.51,9.66-6.53,15.18-6.35,4.87,1.13,8.12,3.32,9.49,6.73A30.17,30.17,0,0,0,452.44,182.45Z" transform="translate(-282.54 -70.67)"/><path class="bcd447fb-009a-4438-a4ca-01a37413eaa3" d="M383,198.69c2.91,2.42,4.56,5.31,2.61,9.57-3.75,6-6.38,11.89-6.7,17.78-.83,4.93.29,10,2.52,15.24,2.38,4.79,8.64,8,16.32,10.63-7,2-13.45,3.8-23.53,1.14-6.24-5.73-11.08-12.11-13.29-19.74-1.45-8.11-1.17-15.88,1.52-23.15C368.89,204.07,375.55,199.37,383,198.69Z" transform="translate(-282.54 -70.67)"/><path class="bcd447fb-009a-4438-a4ca-01a37413eaa3" d="M493.19,182.45c-1.57,3.73-.7,8,1.49,12.59,5.73,2.08,10.48,7.1,13.56,17-1.72,7.15-6.82,16-13.28,25.43,11.19-3,20.48-6.49,25.87-11,5.82-11.21,9-21.62,5.56-30a21.86,21.86,0,0,0-12.8-16C503.87,178.47,496.05,178.17,493.19,182.45Z" transform="translate(-282.54 -70.67)"/><path class="ef7182ec-fc2c-459f-85aa-ce682bd43803" d="M433.84,254.57l12.43-6.17,14.94,2.26c-6.78,1.53-12.72,3.19-13.68,5.75C444.61,254,439.63,253.84,433.84,254.57Z" transform="translate(-282.54 -70.67)"/><path class="fabc5203-c54a-4811-b1d2-d6dda51acc7a" d="M364.76,116.78c-3.67-5.17-10-8-18.22-9.11-31.21-1-48.79,5.35-62.63,13.66-2.34,17.71,7,32.45,16.7,47.07,11.81,19.08,19.52,36.92,19.36,52.39Z" transform="translate(-282.54 -70.67)"/><path class="fabc5203-c54a-4811-b1d2-d6dda51acc7a" d="M476.36,96.66c7.75-9.67,18-17.1,31.12-22,18.6-3.49,35.72-4.4,49.79,0,4.56,8.28,6.07,19.34,6.77,31.13-1.94,8.27-2.21,17.19-8.35,22.78-3.45,9,8.29,20.36,12.53,33C544.69,157.16,509.72,125,476.36,96.66Z" transform="translate(-282.54 -70.67)"/><path class="bcd447fb-009a-4438-a4ca-01a37413eaa3" d="M493.82,105.77C499.17,99,505.41,94.29,513.56,94c13.45,1.1,19.14,5.78,18.12,13.57-1.56,7.86-6.38,13.15-12.81,17.18Z" transform="translate(-282.54 -70.67)"/><path class="bcd447fb-009a-4438-a4ca-01a37413eaa3" d="M350.71,134.24l-9.49,23.53c-10.12,1.24-17.13-2.38-21.63-9.87-3.68-9.65-2.06-17.48,11.39-21.25C336.33,124.12,343,126.9,350.71,134.24Z" transform="translate(-282.54 -70.67)"/><path class="e7925c2e-5587-484a-9988-628fd3a74f08" d="M473.32,206.05c4.36-5.14,9.39-9.18,15.75-11,8.37,2.63,13.16,8.29,16.14,15.5-1.12,7.44-5.93,13.56-11.39,19.44C494.94,216.2,489.29,207.36,473.32,206.05Z" transform="translate(-282.54 -70.67)"/><path class="e7925c2e-5587-484a-9988-628fd3a74f08" d="M403.1,215.47c-5.52-2.41-10.64-3.91-14.7-3-5.73,6.32-6.13,13.84-3.33,22.08,2.19,5.91,8.15,9,15.75,10.87C393.61,231.8,393.25,221.29,403.1,215.47Z" transform="translate(-282.54 -70.67)"/><path class="e7925c2e-5587-484a-9988-628fd3a74f08" d="M425.68,182.45c.43,5.31-1.93,10-7.23,14.13a20,20,0,0,0,11-1.54C430.75,191.21,429.09,187,425.68,182.45Z" transform="translate(-282.54 -70.67)"/><path class="e7925c2e-5587-484a-9988-628fd3a74f08" d="M444.17,179.07c-2.3,2.37-3.39,5.53-.65,11.16q3.44,3.81,14.16,2.54C451.49,190.59,447,186,444.17,179.07Z" transform="translate(-282.54 -70.67)"/></svg>