<svg id="ec0e3779-8c3b-444a-98fd-cf63c3a41454" data-name="Layer 2" xmlns="http://www.w3.org/2000/svg" viewBox="0 0 751.2 516.05"><defs><style>.a4aa5e37-c8eb-43a0-b839-50caae9a0b2e{fill:#9b7053;}.a300a340-0b66-498e-8597-ef89f7d19ae4,.a4aa5e37-c8eb-43a0-b839-50caae9a0b2e,.ae95533a-16f2-4039-b0a9-cfa1a6e1434b,.ea7afe06-83c2-44f4-aa77-c9ffdf2bf403,.fc5931e2-e59a-45c3-8237-a819b2f6cbd2{stroke:#000;stroke-miterlimit:10;}.ea7afe06-83c2-44f4-aa77-c9ffdf2bf403{fill:#f47b2a;}.a300a340-0b66-498e-8597-ef89f7d19ae4{fill:#fff;}.ae95533a-16f2-4039-b0a9-cfa1a6e1434b{fill:#050505;}</style></defs><path class="a4aa5e37-c8eb-43a0-b839-50caae9a0b2e" d="M397.84,421.9c2.73,35.44,25.36,76.74,56.66,120.6,14.29,20.44,34,35.37,59.85,44.19,22.61-11,32.51-22.28,35.18-33.69l353.26-66.48c24.49-1.24,43.76-7.63,55-22,8.08-14.71,14-33.2,16.13-58.2,11.16-45.21,16.76-87.25,6.09-120L828.5,92.5c-50.82-10.41-112-6.27-180.75,8.52-75,3.38-140.56,26.29-198.25,65.48Z" transform="translate(-283.04 -71.17)"/><path class="ea7afe06-83c2-44f4-aa77-c9ffdf2bf403" d="M503.5,197.5c-3.46,13.17-19,29.41-36,46-40.58,182.1-15.61,211.81,11.67,236.15,39.65,56.78,130.38,73.7,236.38,78.7,136-34.33,224.77-75.69,228-129.85,7.29-99.59-12.08-194.94-97-257-27.31-6.51-43.75-14.37-54-23C700.37,137.67,603.57,157,503.5,197.5Z" transform="translate(-283.04 -71.17)"/><path class="a300a340-0b66-498e-8597-ef89f7d19ae4" d="M605.72,528.44A58.59,58.59,0,0,0,621.5,564.5c18.49,12.1,38.63,20.33,61.5,22.19,32.48-1.31,63.91-3.17,81.5-12.19,13.9-3.62,26-11,36.66-21.5,5.18-12.84,7.82-25.61,5.89-38.25" transform="translate(-283.04 -71.17)"/><path class="a300a340-0b66-498e-8597-ef89f7d19ae4" d="M645.5,417.5c-8.73,6.78-16.5,15.52-21,31-7.1,9.38-20.9,11.36-35,13C584,480,587,499,597.5,518.5c10.1,13,21.46,25.1,38,33,19,5,34.12,6,44,2,16.61-5.51,27.73-10.94,32.73-16.26,8.47,4.6,22.38,6.14,39.36,6,21.66-1.76,37.57-8,47.91-18.7,11-12,17.14-26.57,20-43,6.36-15.79,4.79-30.55-7-44-12.73-.07-24.68-3.52-35.43-12.05-5.24-11.83-16.81-23.19-31.57-23.95-11.54-2.63-22.69.75-43,21C676.28,402.23,659,410.51,645.5,417.5Z" transform="translate(-283.04 -71.17)"/><path class="fc5931e2-e59a-45c3-8237-a819b2f6cbd2" d="M758.5,394.5c-.13-11.22.73-21.72,6-29a48.5,48.5,0,0,1,26-7c5.76,11.64,7.9,22.46,0,30.95Q778.31,400.61,758.5,394.5Z" transform="translate(-283.04 -71.17)"/><path class="fc5931e2-e59a-45c3-8237-a819b2f6cbd2" d="M702.5,464.5c-17.33,10.41-27.26,26.07-34,44-2.85,16,7.64,24.53,26,27,14.7,3.15,26.9,2.33,35-5,15-3.14,23.07-13.65,22-34C741.46,478,726.17,466,702.5,464.5Z" transform="translate(-283.04 -71.17)"/><path class="ae95533a-16f2-4039-b0a9-cfa1a6e1434b" d="M588.45,396.66c-3.28,11.23,1.25,18.59,10,23.84a34.85,34.85,0,0,0,30-5c-3.69-11.63-9.46-19.44-17-24C602.08,389.86,593.74,390.32,588.45,396.66Z" transform="translate(-283.04 -71.17)"/><path class="a300a340-0b66-498e-8597-ef89f7d19ae4" d="M642.36,383.5c-7.54-8.56-16.32-16.42-30.86-21a73.18,73.18,0,0,0-47.8,0C574,348.64,585.77,336.73,603,332.61c15.67-2.56,25.89,1.15,33.47,7.89C650.9,353.93,649.88,368.48,642.36,383.5Z" transform="translate(-283.04 -71.17)"/><path class="a300a340-0b66-498e-8597-ef89f7d19ae4" d="M728.5,363.5c-11.51-8.62-16.73-21.38-10-42,12.08-11.89,25.46-17.21,40-16.74,12.83,3,21.41,8.75,25,17.74C759.19,327.87,740.66,341.27,728.5,363.5Z" transform="translate(-283.04 -71.17)"/><path class="a300a340-0b66-498e-8597-ef89f7d19ae4" d="M545.62,406.3c7.67,6.36,12,14,6.88,25.2-9.88,15.69-16.81,31.32-17.63,46.84-2.19,13,.76,26.44,6.63,40.16,6.26,12.62,22.77,21.07,43,28-18.35,5.15-35.45,10-62,3-16.43-15.1-29.2-31.91-35-52-3.82-21.38-3.08-41.84,4-61C508.37,420.47,525.94,408.08,545.62,406.3Z" transform="translate(-283.04 -71.17)"/><path class="a300a340-0b66-498e-8597-ef89f7d19ae4" d="M835.85,363.5c-4.15,9.84-1.84,21.12,3.91,33.16,15.1,5.5,27.6,18.71,35.74,44.84-4.54,18.85-18,42.05-35,67,29.48-7.92,54-17.1,68.15-28.85,15.34-29.53,23.82-56.95,14.66-78.92-4.1-18.6-14.35-33.3-33.71-42.24C864,353,843.38,352.22,835.85,363.5Z" transform="translate(-283.04 -71.17)"/><path class="fc5931e2-e59a-45c3-8237-a819b2f6cbd2" d="M679.5,553.5l32.73-16.26,39.36,6c-17.86,4-33.51,8.4-36,15.15C707.87,552,694.74,551.58,679.5,553.5Z" transform="translate(-283.04 -71.17)"/><path class="ea7afe06-83c2-44f4-aa77-c9ffdf2bf403" d="M497.5,190.5c-9.66-13.62-26.23-21.11-48-24-82.21-2.52-128.52,14.11-165,36-6.14,46.65,18.36,85.47,44,124,31.12,50.26,51.43,97.25,51,138Z" transform="translate(-283.04 -71.17)"/><path class="ea7afe06-83c2-44f4-aa77-c9ffdf2bf403" d="M791.5,137.5c20.42-25.47,47.46-45.06,82-58,49-9.2,94.1-11.61,131.16,0,12,21.81,16,50.94,17.84,82-5.12,21.79-5.84,45.3-22,60-9.1,23.69,21.84,53.65,33,87C971.51,296.89,879.39,212.06,791.5,137.5Z" transform="translate(-283.04 -71.17)"/><path class="a300a340-0b66-498e-8597-ef89f7d19ae4" d="M837.5,161.5c14.08-17.87,30.53-30.26,52-31,35.45,2.88,50.43,15.23,47.73,35.75-4.09,20.69-16.79,34.63-33.73,45.25Z" transform="translate(-283.04 -71.17)"/><path class="a300a340-0b66-498e-8597-ef89f7d19ae4" d="M460.5,236.5l-25,62c-26.68,3.25-45.13-6.27-57-26-9.68-25.42-5.42-46.06,30-56C422.6,209.84,440.09,217.16,460.5,236.5Z" transform="translate(-283.04 -71.17)"/><path class="a4aa5e37-c8eb-43a0-b839-50caae9a0b2e" d="M783.5,425.69c11.49-13.55,24.74-24.2,41.5-29,22,6.95,34.67,21.86,42.5,40.84-2.94,19.6-15.61,35.72-30,51.22C840.44,452.43,825.57,429.13,783.5,425.69Z" transform="translate(-283.04 -71.17)"/><path class="a4aa5e37-c8eb-43a0-b839-50caae9a0b2e" d="M598.5,450.5c-14.53-6.34-28-10.29-38.71-7.81-15.1,16.65-16.17,36.46-8.8,58.18,5.79,15.56,21.49,23.71,41.51,28.63C573.51,493.52,572.55,465.82,598.5,450.5Z" transform="translate(-283.04 -71.17)"/><path class="a4aa5e37-c8eb-43a0-b839-50caae9a0b2e" d="M658,363.5c1.12,14-5.08,26.44-19.06,37.23a52.72,52.72,0,0,0,29.1-4.07C671.34,386.58,667,375.38,658,363.5Z" transform="translate(-283.04 -71.17)"/><path class="a4aa5e37-c8eb-43a0-b839-50caae9a0b2e" d="M706.7,354.62c-6.06,6.23-8.93,14.54-1.72,29.38q9,10,37.3,6.69C726,385,714.27,372.73,706.7,354.62Z" transform="translate(-283.04 -71.17)"/></svg>